<svg width="24" height="25" viewBox="0 0 24 25" fill="none" xmlns="http://www.w3.org/2000/svg">
<g clip-path="url(#clip0_68_189)">
<path d="M14.5 21.5679C14.372 21.5679 14.244 21.5189 14.146 21.4219C13.951 21.2269 13.951 20.9099 14.146 20.7149L22.793 12.0679L14.147 3.42185C13.952 3.22685 13.952 2.90985 14.147 2.71485C14.342 2.51985 14.659 2.51985 14.854 2.71485L23.854 11.7149C24.049 11.9099 24.049 12.2269 23.854 12.4219L14.854 21.4219C14.756 21.5189 14.628 21.5679 14.5 21.5679Z" fill="#2F70FE"/>
<path d="M23.5 12.5679H0.5C0.224 12.5679 0 12.3439 0 12.0679C0 11.7919 0.224 11.5679 0.5 11.5679H23.5C23.776 11.5679 24 11.7919 24 12.0679C24 12.3439 23.776 12.5679 23.5 12.5679Z" fill="#2F70FE"/>
</g>
<defs>
<clipPath id="clip0_68_189">
<rect width="24" height="24" fill="white" transform="translate(0 0.0678711)"/>
</clipPath>
</defs>
</svg>
